<?xml version="1.0" encoding="utf-8"?>
<!-- Generator: Adobe Illustrator 18.1.0, SVG Export Plug-In . SVG Version: 6.00 Build 0)  -->
<svg version="1.1" id="Layer_10" xmlns="http://www.w3.org/2000/svg" xmlns:xlink="http://www.w3.org/1999/xlink" x="0px" y="0px"
	 viewBox="0 0 94.1 94.1" enable-background="new 0 0 94.1 94.1" xml:space="preserve">
<g>
	<path fill="#010202" d="M82.2,42.7c-1.1-1.2-2.7-1.8-4.3-1.7l-19.5,1.1l10.7-12.2c1.5-1.7,2-4.1,1.4-6.1c-0.3-1.4-1.2-2.7-2.5-3.5
		c0,0-25.6-14.9-25.6-14.9c-2.1-1.2-4.7-0.9-6.5,0.7L23.4,17.2c-2.3,2.1-2.5,5.6-0.5,7.9c2.1,2.3,5.6,2.5,7.9,0.5l9.5-8.5l7.8,4.5
		L34.3,37.3c-5.7,0.9-10.9,3.6-14.9,7.4l7.2,7.2c3.3-3,7.6-4.8,12.3-4.8c10.1,0,18.4,8.2,18.4,18.4c0,4.7-1.8,9.1-4.8,12.3l7.2,7.2
		c4.8-5.1,7.8-12,7.8-19.5c0-4.5-1-8.8-2.9-12.6l7.5-0.4L70.2,75c-0.3,3.1,2,5.8,5.1,6c0.2,0,0.3,0,0.5,0c2.9,0,5.3-2.2,5.6-5.1
		L83.7,47C83.9,45.4,83.3,43.8,82.2,42.7z"/>
	<path fill="#010202" d="M71.8,18.8c5.2,0,9.4-4.2,9.4-9.4c0-5.2-4.2-9.4-9.4-9.4c-5.2,0-9.4,4.2-9.4,9.4
		C62.5,14.6,66.7,18.8,71.8,18.8z"/>
	<path fill="#010202" d="M38.9,83.9c-10.1,0-18.4-8.2-18.4-18.4c0-3.8,1.2-7.4,3.2-10.3l-7.3-7.3c-3.8,4.8-6.1,11-6.1,17.6
		c0,15.8,12.8,28.5,28.5,28.5c6.6,0,12.7-2.3,17.6-6.1l-7.3-7.3C46.3,82.7,42.7,83.9,38.9,83.9z"/>
</g>
</svg>
