<?xml version="1.0" encoding="utf-8"?>
<!-- Generator: Adobe Illustrator 18.1.0, SVG Export Plug-In . SVG Version: 6.00 Build 0)  -->
<svg version="1.1" id="Layer_20" xmlns="http://www.w3.org/2000/svg" xmlns:xlink="http://www.w3.org/1999/xlink" x="0px" y="0px"
	 viewBox="0 0 94.1 94.1" enable-background="new 0 0 94.1 94.1" xml:space="preserve">
<path d="M87.2,40.9H21.8l17.5-17.5c2.4-2.4,2.4-6.3,0-8.7c-2.4-2.4-6.3-2.4-8.7,0l-28,28l0,0C2.3,43,2,43.3,1.8,43.6
	c-0.1,0.1-0.2,0.3-0.2,0.4c-0.1,0.2-0.2,0.4-0.3,0.6c-0.1,0.2-0.1,0.4-0.2,0.6c-0.1,0.2-0.1,0.4-0.2,0.6c-0.1,0.3-0.1,0.6-0.1,1
	c0,0.1,0,0.2,0,0.2c0,0.1,0,0.2,0,0.3c0,0.3,0,0.6,0.1,0.9c0,0.2,0.1,0.4,0.2,0.6c0.1,0.2,0.1,0.3,0.2,0.5c0.1,0.2,0.2,0.5,0.4,0.7
	c0.1,0.1,0.1,0.3,0.2,0.4c0.2,0.3,0.5,0.7,0.8,1l28,28c1.2,1.2,2.8,1.8,4.4,1.8s3.2-0.6,4.4-1.8c2.4-2.4,2.4-6.3,0-8.7L21.8,53.2
	h65.3c3.4,0,6.2-2.8,6.2-6.2C93.3,43.6,90.6,40.9,87.2,40.9z"/>
</svg>
