<?xml version="1.0" encoding="utf-8"?>
<!-- Generator: Adobe Illustrator 18.1.0, SVG Export Plug-In . SVG Version: 6.00 Build 0)  -->
<svg version="1.1" id="Layer_11" xmlns="http://www.w3.org/2000/svg" xmlns:xlink="http://www.w3.org/1999/xlink" x="0px" y="0px"
	 viewBox="0 0 94.1 94.1" enable-background="new 0 0 94.1 94.1" xml:space="preserve">
<g>
	<path fill="#010202" d="M4.4,26.8v51.7c0,7,5.7,12.7,12.7,12.7H77c7,0,12.7-5.7,12.7-12.7V26.8c0-7-5.7-12.7-12.7-12.7h-2.6V6.5
		c0-2.1-1.7-3.9-3.9-3.9c-2.1,0-3.9,1.7-3.9,3.9v15.6c0,1.9-1.5,3.5-3.5,3.5c-1.9,0-3.4-1.5-3.4-3.5v-7.9H53V6.5
		c0-2.1-1.7-3.9-3.9-3.9c-2.1,0-3.9,1.7-3.9,3.9v15.6c0,1.9-1.5,3.5-3.5,3.5c-1.9,0-3.4-1.5-3.4-3.5v-7.9h-6.6V6.5
		c0-2.1-1.7-3.9-3.9-3.9c-2.1,0-3.9,1.7-3.9,3.9v15.6c0,1.9-1.5,3.5-3.5,3.5c-1.9,0-3.4-1.5-3.4-3.5v-7.9
		C10.1,14.1,4.4,19.8,4.4,26.8z M80.5,77c0,2.3-1.8,4.1-4.1,4.1H18.3c-2.3,0-4.1-1.8-4.1-4.1V43.7h66.3C80.5,43.7,80.5,77,80.5,77z"
		/>
	<path fill="#010202" d="M56,75.3H37.8l7.3-9.6c0.8-1.1,1.5-2.1,2.1-2.9c0.6-0.9,1-1.6,1.3-2.3c0.6-1.2,0.9-2.5,0.9-3.8
		c0-0.7-0.1-1.3-0.4-1.7c-0.3-0.4-0.7-0.6-1.2-0.6c-1.1,0-1.7,1.1-1.7,3.2c0,0.1,0,0.3,0,0.4c0,0.2,0,0.4,0,0.6h-6.9l0-1
		c0-2.6,0.8-4.8,2.5-6.4c1.7-1.6,3.8-2.4,6.3-2.4c2.5,0,4.5,0.8,6.1,2.4c1.6,1.6,2.4,3.6,2.4,6.2c0,2-0.5,4-1.6,6
		c-0.5,1-1.2,2-2.1,3c-0.9,1.1-1.9,2.2-3.2,3.3c1.1-0.3,2.1-0.5,3.2-0.6C53.7,69,54.9,69,56,69L56,75.3L56,75.3z"/>
</g>
</svg>
