<?xml version="1.0" encoding="utf-8"?>
<!-- Generator: Adobe Illustrator 18.1.0, SVG Export Plug-In . SVG Version: 6.00 Build 0)  -->
<svg version="1.1" id="Layer_19" xmlns="http://www.w3.org/2000/svg" xmlns:xlink="http://www.w3.org/1999/xlink" x="0px" y="0px"
	 viewBox="0 0 94.1 94.1" enable-background="new 0 0 94.1 94.1" xml:space="preserve">
<g>
	<path fill="#010202" d="M17.2,92.3h39.1c2.8,0,5.1-2.3,5.1-5.1v-7.2C72.9,79.4,82,70.4,82,59.4s-9.1-20-20.6-20.5v-5.2
		c0-2.8-2.3-5.1-5.1-5.1H17.2c-2.8,0-5.1,2.3-5.1,5.1v53.5C12.1,90,14.4,92.3,17.2,92.3z M61.5,47.1c6.7,0.5,12,5.8,12,12.3
		s-5.3,11.8-12,12.3C61.5,71.7,61.5,47.1,61.5,47.1z M61.5,73.7c7.8-0.5,14.1-6.7,14.1-14.3s-6.2-13.8-14.1-14.3v-4.1
		C71.7,41.4,80,49.5,80,59.4c0,9.9-8.2,18-18.5,18.5C61.5,77.9,61.5,73.7,61.5,73.7z M14.1,33.7c0-1.7,1.4-3.1,3.1-3.1h39.1
		c1.7,0,3.1,1.4,3.1,3.1v53.5c0,1.7-1.4,3.1-3.1,3.1H17.2c-1.7,0-3.1-1.4-3.1-3.1L14.1,33.7L14.1,33.7z"/>
	<ellipse fill="#010202" cx="26.5" cy="67.6" rx="2.1" ry="3.1"/>
	<ellipse fill="#010202" cx="47.1" cy="67.6" rx="2.1" ry="3.1"/>
	<path fill="#010202" d="M36.8,82c4,0,7.2-3.2,7.2-7.2c0-0.6-0.5-1-1-1s-1,0.5-1,1c0,2.8-2.3,5.1-5.1,5.1s-5.1-2.3-5.1-5.1
		c0-0.6-0.5-1-1-1c-0.6,0-1,0.5-1,1C29.6,78.8,32.8,82,36.8,82z"/>
	<path fill="#010202" d="M22.1,16.1c0.4-0.4,0.4-1.1,0-1.5c-1-1-4.1-4.7,0-8.8c1.5-1.5,3.5-2.2,5.6-1.9c2.2,0.4,4.1,1.8,5.1,3.6
		c1.7,3.3,0.5,8.4-4.1,17.6c-0.3,0.5,0,1.1,0.5,1.4c0.1,0.1,0.3,0.1,0.5,0.1c0.4,0,0.7-0.2,0.9-0.6c3.6-7.2,6.6-14.5,4.1-19.4
		c-1.2-2.5-3.8-4.3-6.6-4.8c-2.8-0.4-5.4,0.4-7.4,2.4c-4.3,4.3-2.7,9,0,11.7C21,16.5,21.7,16.5,22.1,16.1z"/>
	<path fill="#010202" d="M43.6,26.7c0.1,0,0.2,0,0.3-0.1c0.5-0.2,0.8-0.8,0.7-1.3C42.5,19,42.9,13.5,44.4,12
		c1.7-1.7,3.7-1.6,4.8-0.7c1.1,0.9,1.6,2.9-0.2,5.6c-0.3,0.5-0.2,1.1,0.3,1.4c0.5,0.3,1.1,0.2,1.4-0.3c2.6-3.9,1.5-6.9-0.2-8.3
		c-1.8-1.5-5-1.7-7.5,0.9c-2.7,2.7-2.1,9.8-0.2,15.4C42.8,26.4,43.2,26.7,43.6,26.7z"/>
	<path fill="#010202" d="M35,26.4c0.1,0.1,0.3,0.1,0.4,0.1c0.4,0,0.8-0.2,0.9-0.6c1.9-4.2,2.1-8.4,2.1-8.6c0-0.6-0.4-1.1-1-1.1
		c-0.6,0-1.1,0.4-1.1,1c0,0-0.3,4-2,7.9C34.2,25.6,34.5,26.2,35,26.4z"/>
</g>
</svg>
