<?xml version="1.0" encoding="utf-8"?>
<!-- Generator: Adobe Illustrator 16.0.0, SVG Export Plug-In . SVG Version: 6.00 Build 0)  -->
<!DOCTYPE svg PUBLIC "-//W3C//DTD SVG 1.1//EN" "http://www.w3.org/Graphics/SVG/1.1/DTD/svg11.dtd">
<svg version="1.1" id="Calque_5" xmlns="http://www.w3.org/2000/svg" xmlns:xlink="http://www.w3.org/1999/xlink" x="0px" y="0px"
	 width="94.114px" height="94.114px" viewBox="0 0 94.114 94.114" enable-background="new 0 0 94.114 94.114" xml:space="preserve">
<g>
	<path d="M51.749,56.098c1.445,0.687,4.336,0.439,5.109-1.191c0.773-1.63-0.865-4.024-2.311-4.71
		c-1.443-0.685-4.492-0.512-5.264,1.118C48.511,52.943,50.306,55.413,51.749,56.098z"/>
	<path d="M43.487,34.058c1.577-0.26,3.812-2.11,3.52-3.891c-0.293-1.779-3.004-2.813-4.582-2.554s-3.983,2.138-3.69,3.918
		C39.028,33.311,41.909,34.317,43.487,34.058z"/>
	<path d="M63.081,71.736c-0.326,0.009-0.721,0.012-1.158,0.048c-0.434,0.057-0.938-0.022-1.463-0.031
		c-0.262-0.006-0.533-0.013-0.814-0.02c-0.279,0.011-0.564-0.018-0.854-0.074c-0.576-0.11-1.188-0.103-1.783-0.271
		c-0.59-0.191-1.229-0.23-1.809-0.506c-0.297-0.111-0.594-0.229-0.898-0.329c-0.301-0.104-0.574-0.289-0.865-0.425
		c-0.598-0.245-1.121-0.638-1.674-0.967c-0.531-0.365-1.043-0.758-1.533-1.152c-0.471-0.42-0.957-0.807-1.365-1.236
		c-0.443-0.401-0.821-0.826-1.195-1.208c-0.726-0.779-1.33-1.472-1.744-1.974c-0.423-0.51-0.665-0.801-0.665-0.801
		s-0.106,0.424-0.167,1.181c-0.06,0.757-0.077,1.849,0.129,3.153c0.202,1.303,0.614,2.838,1.5,4.354
		c0.438,0.755,0.988,1.51,1.693,2.162c0.685,0.67,1.517,1.243,2.427,1.645c0.904,0.417,1.879,0.646,2.824,0.735
		c0.473,0.026,0.945,0.073,1.396,0.022c0.455-0.026,0.902-0.052,1.324-0.148c0.859-0.132,1.641-0.392,2.361-0.651
		c0.35-0.149,0.691-0.294,1.021-0.434c0.32-0.157,0.617-0.331,0.906-0.485c0.586-0.291,1.072-0.648,1.504-0.948
		c0.441-0.285,0.791-0.588,1.076-0.835c0.574-0.491,0.879-0.798,0.879-0.798S63.737,71.722,63.081,71.736z"/>
	<path d="M30.819,34.89c-0.595-1.702-3.442-2.257-4.952-1.729s-3.557,2.79-2.963,4.493s3.605,2.199,5.115,1.673
		C29.529,38.799,31.413,36.593,30.819,34.89z"/>
	<path d="M67.835,56.498c-1.445-0.685-4.492-0.512-5.266,1.118c-0.771,1.629,1.023,4.099,2.467,4.783
		c1.445,0.686,4.336,0.439,5.109-1.191C70.919,59.578,69.28,57.184,67.835,56.498z"/>
	<path d="M47.057,1.058c-25.404,0-46,20.595-46,45.999c0,25.405,20.596,46,46,46c25.405,0,46-20.595,46-46
		C93.058,21.652,72.462,1.058,47.057,1.058z M23.733,52.496l-8.875-22.834c-0.548-1.569,0.586-3.727,2.044-4.235
		c3.083-1.076,5.549-4.103,11.771-6.274s9.98-1.317,13.119-2.414c1.458-0.509,3.631,0.493,4.235,2.044l5.307,17.485
		c-1.734,0.329-3.29,1.412-4.001,2.915l-1.842,4.26c-0.705-0.371-1.491-0.702-2.368-0.938c-0.842-0.23-1.764-0.381-2.726-0.352
		c-0.957,0.007-1.951,0.183-2.881,0.535c-0.937,0.338-1.792,0.86-2.527,1.461c-0.354,0.312-0.725,0.61-1.01,0.964
		c-0.306,0.338-0.605,0.67-0.838,1.036c-0.52,0.697-0.894,1.43-1.223,2.122c-0.146,0.353-0.287,0.695-0.424,1.027
		c-0.117,0.337-0.207,0.669-0.305,0.98c-0.213,0.62-0.308,1.214-0.404,1.732c-0.114,0.512-0.149,0.973-0.181,1.35
		c-0.063,0.753-0.063,1.185-0.063,1.185s0.299-0.266,0.755-0.735c0.226-0.236,0.505-0.515,0.791-0.847
		c0.268-0.347,0.683-0.645,1.063-1.007c0.19-0.179,0.389-0.364,0.594-0.558c0.189-0.204,0.413-0.384,0.66-0.547
		c0.486-0.326,0.917-0.761,1.459-1.06c0.554-0.278,1.035-0.698,1.642-0.91c0.29-0.13,0.584-0.253,0.87-0.397
		c0.289-0.138,0.612-0.197,0.915-0.304c0.597-0.246,1.246-0.333,1.871-0.488c0.634-0.112,1.273-0.192,1.899-0.257
		c0.244-0.012,0.483-0.029,0.722-0.045L38.18,60.355C32.968,59.95,26.371,57.346,23.733,52.496z M78.997,54.123L66.894,77.152
		c-6.902,6.58-14.393,6.323-18.875,4.197c-4.54-2.154-10.659-11.635-8.57-18.887l9.721-22.487c0.713-1.502,3.035-2.241,4.43-1.58
		c2.951,1.4,6.832,0.978,12.787,3.803c5.955,2.823,8.029,6.07,11.033,7.495C78.813,50.355,79.657,52.596,78.997,54.123z"/>
</g>
</svg>
