<?xml version="1.0" encoding="utf-8"?>
<!-- Generator: Adobe Illustrator 18.1.0, SVG Export Plug-In . SVG Version: 6.00 Build 0)  -->
<svg version="1.1" id="Layer_25" xmlns="http://www.w3.org/2000/svg" xmlns:xlink="http://www.w3.org/1999/xlink" x="0px" y="0px"
	 viewBox="0 0 94.1 94.1" enable-background="new 0 0 94.1 94.1" xml:space="preserve">
<g id="Your_Icon_1_">
	<g>
		<g>
			<path d="M33.8,79.9c0,7.3,6,13.3,13.3,13.3c7.3,0,13.3-6,13.3-13.3c0-7.3-6-13.3-13.3-13.3C39.7,66.6,33.8,72.6,33.8,79.9z"/>
		</g>
		<g>
			<path d="M33.8,47.1c0,7.3,6,13.3,13.3,13.3c7.3,0,13.3-6,13.3-13.3c0-7.3-6-13.3-13.3-13.3C39.7,33.8,33.8,39.7,33.8,47.1z"/>
		</g>
		<g>
			<path d="M33.8,14.2c0,7.3,6,13.3,13.3,13.3c7.3,0,13.3-6,13.3-13.3c0-7.3-6-13.3-13.3-13.3C39.7,0.9,33.8,6.9,33.8,14.2z"/>
		</g>
	</g>
</g>
</svg>
