<?xml version="1.0" encoding="utf-8"?>
<!-- Generator: Adobe Illustrator 18.1.0, SVG Export Plug-In . SVG Version: 6.00 Build 0)  -->
<svg version="1.1" id="Layer_18" xmlns="http://www.w3.org/2000/svg" xmlns:xlink="http://www.w3.org/1999/xlink" x="0px" y="0px"
	 viewBox="0 0 94.1 94.1" enable-background="new 0 0 94.1 94.1" xml:space="preserve">
<g>
	<circle fill="#010202" cx="80.4" cy="50.2" r="6.8"/>
	<path fill="#010202" d="M84,58.8c0,0-8.1,0-9.5,0l-4.9-4.9l-5.7-26c-1-3.9-4.5-6.9-8.7-6.9H44.4c-4.5,0-8.2,3.3-8.9,7.6l-2.2,10.4
		l-1.8-7.3c-0.9-4-4.5-7.1-8.8-7.1H11.9c-5,0-9,4.1-9,9v18.9c0,3.7,2.2,6.8,5.4,8.2v24.2c0,4,3.2,7.2,7.2,7.2h3.6
		c4,0,7.2-3.2,7.2-7.2V45.7l2.6,11.4c0.5,2.3,2.4,3.5,4.6,3.5c2.3,0,4-1.3,4.5-3.6l2.7-13.1v41c0,4,3.2,7.2,7.2,7.2h3.6
		c4,0,7.2-3.2,7.2-7.2V43l2.6,11.9c0.4,1.9,1.9,3.4,2.4,3.9l9.4,9.4v17.6c0,3.5,2.8,6.3,6.3,6.3h1.8c3.5,0,6.3-2.8,6.3-6.3v-7.3
		c2.1-1.3,3.6-3.6,3.6-6.2V66C91.2,62,87.9,58.8,84,58.8z"/>
	<circle fill="#010202" cx="17.3" cy="13.7" r="8.1"/>
	<circle fill="#010202" cx="49.8" cy="10.1" r="8.1"/>
</g>
</svg>
