<?xml version="1.0" encoding="utf-8"?>
<!-- Generator: Adobe Illustrator 16.0.0, SVG Export Plug-In . SVG Version: 6.00 Build 0)  -->
<!DOCTYPE svg PUBLIC "-//W3C//DTD SVG 1.1//EN" "http://www.w3.org/Graphics/SVG/1.1/DTD/svg11.dtd">
<svg version="1.1" id="Calque_1" xmlns="http://www.w3.org/2000/svg" xmlns:xlink="http://www.w3.org/1999/xlink" x="0px" y="0px"
	 width="94.114px" height="94.114px" viewBox="0 0 94.114 94.114" enable-background="new 0 0 94.114 94.114" xml:space="preserve">
<path d="M47.057,1.058c-25.404,0-46,20.595-46,45.999c0,25.405,20.596,46,46,46c25.405,0,46.001-20.595,46.001-46
	C93.058,21.652,72.462,1.058,47.057,1.058z M73.495,34.133c4.068,0,7.367,3.298,7.367,7.366c0,4.069-3.299,7.367-7.367,7.367
	c-4.07,0-7.369-3.298-7.369-7.367C66.126,37.431,69.425,34.133,73.495,34.133z M47.723,29.667c4.802,0,8.694,3.894,8.694,8.695
	s-3.893,8.694-8.694,8.694c-4.803,0-8.695-3.893-8.695-8.694S42.92,29.667,47.723,29.667z M21.621,33.935
	c4.067,0,7.367,3.299,7.367,7.367c0,4.069-3.3,7.367-7.367,7.367c-4.069,0-7.368-3.298-7.368-7.367
	C14.253,37.233,17.552,33.935,21.621,33.935z M10.689,60.86c0,0,0-10.781,10.932-10.599c10.854,0.183,10.93,10.599,10.93,10.599
	H10.689z M34.218,61.058c0,0,0-12.604,13.505-12.389c13.413,0.213,13.505,12.389,13.505,12.389H34.218z M62.563,61.058
	c0,0,0-10.781,10.932-10.598c10.854,0.182,10.93,10.598,10.93,10.598H62.563z"/>
</svg>
