<?xml version="1.0" encoding="utf-8"?>
<!-- Generator: Adobe Illustrator 18.1.0, SVG Export Plug-In . SVG Version: 6.00 Build 0)  -->
<svg version="1.1" id="Layer_17" xmlns="http://www.w3.org/2000/svg" xmlns:xlink="http://www.w3.org/1999/xlink" x="0px" y="0px"
	 viewBox="0 0 94.1 94.1" enable-background="new 0 0 94.1 94.1" display="none" xml:space="preserve">
<path display="inline" fill="#010202" d="M88.2,4.5C75.4,0.2,60.7,2.3,46.5,4.3c-13.9,2-27,3.9-38.1,0.2C7.2,4.1,5.9,4.3,4.8,5.1
	c-1,0.8-1.7,2-1.7,3.2v47.8c0,0.1,0,0.1,0,0.2v31.8c0,2.2,1.8,4,4,4s4-1.8,4-4V61.4c11.5,2.3,24.2,0.5,36.5-1.2
	c13.9-2,27-3.9,38.1-0.2c1.2,0.4,2.6,0.2,3.6-0.5c1-0.8,1.7-2,1.7-3.2V8.3C91,6.6,89.9,5.1,88.2,4.5z M11.1,29.4
	c3.9,0.8,8,1.1,12.1,1.1c8,0,16.3-1.2,24.4-2.3c12.8-1.8,24.9-3.5,35.4-0.9v7.8c-11.5-2.3-24.2-0.5-36.5,1.2
	c-12.8,1.8-24.9,3.5-35.4,0.9C11.1,37.2,11.1,29.4,11.1,29.4z M47.6,12.3c12.8-1.8,24.9-3.6,35.4-1v7.8c-11.5-2.3-24.2-0.5-36.5,1.2
	c-12.8,1.8-24.9,3.5-35.4,0.9v-7.8C22.7,15.8,35.3,14,47.6,12.3z M46.5,52.2c-12.8,1.8-24.9,3.6-35.4,1v-7.8c3.9,0.8,8,1.1,12.1,1.1
	c8,0,16.3-1.2,24.4-2.3c12.8-1.8,24.9-3.5,35.4-0.9V51C71.4,48.7,58.8,50.5,46.5,52.2z"/>
</svg>
