<?xml version="1.0" encoding="utf-8"?>
<!-- Generator: Adobe Illustrator 18.1.0, SVG Export Plug-In . SVG Version: 6.00 Build 0)  -->
<svg version="1.1" id="Layer_16" xmlns="http://www.w3.org/2000/svg" xmlns:xlink="http://www.w3.org/1999/xlink" x="0px" y="0px"
	 viewBox="0 0 94.1 94.1" enable-background="new 0 0 94.1 94.1" xml:space="preserve">
<g id="Your_Icon">
	<g id="XMLID_61_">
		<path fill="#010202" d="M47.1,1.3c25.3,0,45.8,20.5,45.8,45.8c0,25.3-20.5,45.8-45.8,45.8c-25.3,0-45.8-20.5-45.8-45.8
			C1.3,21.8,21.8,1.3,47.1,1.3z M71.8,30.7l-0.2-9.9l0-3l-3,0l-9.9-0.2l-0.1,4.3l5.8,0.1l-7.3,7.3c-3.1-2.1-6.7-3.4-10.7-3.4
			c-10.4,0-18.8,8.4-18.8,18.8c0,9.7,7.3,17.6,16.7,18.7v4.9h-7.1v4.3h7.1v11.3h4.3V72.5h7.1v-4.3h-7.1v-4.9
			c9.4-1.1,16.7-9,16.7-18.7c0-4.9-1.9-9.3-4.9-12.6l7.1-7.1l0.1,5.8L71.8,30.7z"/>
		<path fill="#010202" d="M46.5,30.1c8,0,14.6,6.5,14.6,14.5s-6.5,14.6-14.6,14.6c-8,0-14.6-6.5-14.6-14.6
			C31.9,36.6,38.4,30.1,46.5,30.1z"/>
	</g>
</g>
</svg>
