<?xml version="1.0" encoding="utf-8"?>
<!-- Generator: Adobe Illustrator 16.0.0, SVG Export Plug-In . SVG Version: 6.00 Build 0)  -->
<!DOCTYPE svg PUBLIC "-//W3C//DTD SVG 1.1//EN" "http://www.w3.org/Graphics/SVG/1.1/DTD/svg11.dtd">
<svg version="1.1" id="Calque_8" xmlns="http://www.w3.org/2000/svg" xmlns:xlink="http://www.w3.org/1999/xlink" x="0px" y="0px"
	 width="94.114px" height="94.114px" viewBox="0 0 94.114 94.114" enable-background="new 0 0 94.114 94.114" xml:space="preserve">
<path d="M47.057,1.058c-25.404,0-46,20.595-46,45.999c0,25.405,20.596,46,46,46c25.405,0,46-20.595,46-46
	C93.058,21.652,72.462,1.058,47.057,1.058z M74.058,55.261c0,0.792-0.648,1.44-1.439,1.44H56.702v15.916
	c0,0.792-0.648,1.439-1.441,1.439H38.853c-0.792,0-1.439-0.647-1.439-1.439V56.701H21.498c-0.792,0-1.44-0.648-1.44-1.44V38.854
	c0-0.792,0.648-1.44,1.44-1.44h15.916V21.497c0-0.792,0.647-1.439,1.439-1.439h16.408c0.793,0,1.441,0.647,1.441,1.439v15.916
	h15.916c0.791,0,1.439,0.648,1.439,1.44V55.261z"/>
</svg>
