<?xml version="1.0" encoding="utf-8"?>
<!-- Generator: Adobe Illustrator 18.1.0, SVG Export Plug-In . SVG Version: 6.00 Build 0)  -->
<svg version="1.1" id="Layer_24" xmlns="http://www.w3.org/2000/svg" xmlns:xlink="http://www.w3.org/1999/xlink" x="0px" y="0px"
	 viewBox="0 0 94.1 94.1" enable-background="new 0 0 94.1 94.1" xml:space="preserve">
<g>
	<path d="M51.5,4.4c-0.1,0-0.2,0-0.3,0c-2.5,0-4.2,2-4.2,4.5c0,2.4,0.9,4.4,4.6,4.4v0C69.3,13.5,84.7,28.5,84.7,47
		c0,18.6-15.2,33.9-33.8,33.9c-17.7,0-32.4-13.4-33.7-30.9H25L12.9,29.8L0.8,49.9h7.4c1.3,22.2,19.9,39.8,42.5,39.8
		c23.5,0,42.6-19.2,42.6-42.7C93.3,23.9,74.6,4.8,51.5,4.4z"/>
	<path d="M50.9,68.6c1.5,0,2.7,1.2,2.7,2.7c0,1.5-1.2,2.7-2.7,2.7c-1.5,0-2.7-1.2-2.7-2.7C48.2,69.8,49.4,68.6,50.9,68.6z"/>
	<path d="M68.5,28.2c1.5,0,2.7,1.2,2.7,2.7c0,1.5-1.2,2.7-2.7,2.7c-1.5,0-2.7-1.2-2.7-2.7C65.8,29.4,67,28.2,68.5,28.2z"/>
	<path d="M68.5,60.2c1.5,0,2.7,1.2,2.7,2.7s-1.2,2.7-2.7,2.7c-1.5,0-2.7-1.2-2.7-2.7S67,60.2,68.5,60.2z"/>
	<path d="M74.4,44.5c1.5,0,2.7,1.2,2.7,2.7c0,1.5-1.2,2.7-2.7,2.7c-1.5,0-2.7-1.2-2.7-2.7C71.8,45.7,73,44.5,74.4,44.5z"/>
	<path d="M55.4,25.1c0-2.1-1.7-3.9-3.8-3.9h-0.8c-2.1,0-3.7,1.8-3.7,3.9v22.4l-11,10.9c-1.6,1.6-1.5,4.2,0,5.9
		c1.5,1.6,4.2,1.6,5.8,0l12.1-12.1c0.1-0.1,0.2-0.2,0.3-0.3c0.7-0.7,1.1-1.6,1.1-2.7L55.4,25.1L55.4,25.1z"/>
</g>
</svg>
