<?xml version="1.0" encoding="utf-8"?>
<!-- Generator: Adobe Illustrator 18.1.0, SVG Export Plug-In . SVG Version: 6.00 Build 0)  -->
<svg version="1.1" id="Layer_15" xmlns="http://www.w3.org/2000/svg" xmlns:xlink="http://www.w3.org/1999/xlink" x="0px" y="0px"
	 viewBox="0 0 94.1 94.1" enable-background="new 0 0 94.1 94.1" display="none" xml:space="preserve">
<g display="inline">
	<path fill="#010202" d="M18.1,53v-7.7h-8.1c-3.1,0-5.7-2.7-5.7-6V21.9c0-3.3,2.5-6,5.7-6h36c3.1,0,5.7,2.7,5.7,6v17.4
		c0,3.3-2.5,6-5.7,6v4.2c5.4,0,9.9-4.6,9.9-10.2V21.9c0-5.6-4.4-10.2-9.9-10.2h-36c-5.4,0-9.9,4.6-9.9,10.2v17.4
		c0,5.6,4.4,10.2,9.9,10.2h3.8V57c0,1.1,0.7,2.2,1.8,2.6c0.3,0.1,0.6,0.2,1,0.2c0.8,0,1.5-0.3,2-0.9l7.9-9.3h7.8v-4.2h-9.8L18.1,53z
		"/>
	<path fill="#010202" d="M84.1,34.4H59.7v4.2h24.4c3.1,0,5.7,2.7,5.7,6V62c0,3.3-2.5,6-5.7,6H76v7.7L69.5,68H48
		c-3.1,0-5.7-2.7-5.7-6V44.6c0-3.3,2.5-6,5.7-6v-4.2c-5.4,0-9.9,4.6-9.9,10.2V62c0,5.7,4.4,10.2,9.9,10.2h19.5l7.9,9.3
		c0.5,0.6,1.3,0.9,2,0.9c0.3,0,0.6-0.1,1-0.2c1.1-0.4,1.8-1.4,1.8-2.6v-7.5h3.8c5.4,0,9.9-4.6,9.9-10.2V44.6
		C93.9,39,89.5,34.4,84.1,34.4z"/>
	<path fill="#010202" d="M25,18.6l-7.5,19.7h4.4l1.5-4.4h7.4l1.5,4.4h4.5l-7.4-19.7H25z M24.6,30.7l2.6-7.2h0.1l2.5,7.2H24.6z"/>
	<path fill="#010202" d="M56.6,57.8c0,2.2,1.4,3.6,3.6,3.6c2.7-0.1,5.4-1.8,6.2-2.5c0.9-0.8,3.2-3.5,4.2-5.6
		c1.3,0.6,1.9,1.7,1.9,2.8c0,2.5-2.4,3.9-6.2,4.4l1.8,2.6c6-0.8,8-3.3,8-7c0-3.1-2-5-4.5-5.8c0-0.2,0.1-0.5,0.2-0.7l-3.4-0.6
		c0,0.3-0.1,0.4-0.2,0.7c-1.2-0.1-2.6,0.1-3,0.2c0-0.6,0-2.3,0-2.9c2.8-0.1,5.6-0.3,8.2-0.7l-0.3-3.4c-2.6,0.5-5.2,0.8-7.7,0.9
		c0.1-0.7,0.2-2.6,0.2-2.6l-3.6-0.3c0,0.9-0.1,2-0.1,2.9c-1.6,0-3.5,0-4.5,0l0.2,3.2h0.4c0.9,0,2.5,0,3.9-0.1c0,0.9,0,2.8,0,3.7
		C58.9,52.1,56.6,54.6,56.6,57.8z M67.4,52.6c-0.5,1-1.1,1.8-1.7,2.6c-0.1-0.8-0.1-1.5-0.2-2.4C65.7,52.7,66.7,52.6,67.4,52.6z
		 M62.3,53.9c0.1,1.3,0.3,2.5,0.5,3.7c-0.6,0.3-1.2,0.5-1.7,0.5c-1.1,0-1.1-0.7-1.1-1C59.9,55.8,60.9,54.7,62.3,53.9z"/>
</g>
</svg>
