<?xml version="1.0" encoding="utf-8"?>
<!-- Generator: Adobe Illustrator 16.0.0, SVG Export Plug-In . SVG Version: 6.00 Build 0)  -->
<!DOCTYPE svg PUBLIC "-//W3C//DTD SVG 1.1//EN" "http://www.w3.org/Graphics/SVG/1.1/DTD/svg11.dtd">
<svg version="1.1" id="Calque_2" xmlns="http://www.w3.org/2000/svg" xmlns:xlink="http://www.w3.org/1999/xlink" x="0px" y="0px"
	 width="94.114px" height="94.114px" viewBox="0 0 94.114 94.114" enable-background="new 0 0 94.114 94.114" xml:space="preserve">
<path d="M47.057,1.058c-25.405,0-46,20.595-46,45.999c0,25.405,20.595,46,46,46s46-20.595,46-46
	C93.058,21.652,72.462,1.058,47.057,1.058z M78.132,51.536c-0.07,0.034-0.145,0.05-0.219,0.05c-0.186,0-0.363-0.104-0.449-0.282
	l-7.895-16.326l-7.893,16.326c-0.086,0.179-0.264,0.282-0.449,0.282c-0.074,0-0.148-0.016-0.219-0.05
	c-0.248-0.12-0.352-0.419-0.232-0.668L69.12,33.61c0.01-0.021,0.027-0.033,0.039-0.052c0.018-0.028,0.037-0.056,0.061-0.08
	c0.025-0.024,0.053-0.043,0.082-0.062c0.018-0.012,0.031-0.029,0.051-0.039c0.008-0.004,0.018-0.003,0.027-0.007
	c0.033-0.014,0.066-0.02,0.104-0.026c0.027-0.005,0.057-0.012,0.086-0.012c0.031,0,0.062,0.007,0.094,0.014
	c0.033,0.006,0.064,0.012,0.096,0.024c0.01,0.004,0.02,0.003,0.029,0.007c0.02,0.01,0.033,0.027,0.051,0.039
	c0.029,0.019,0.057,0.037,0.082,0.062c0.023,0.024,0.041,0.052,0.061,0.08c0.012,0.019,0.029,0.031,0.039,0.052l8.344,17.258
	C78.483,51.117,78.38,51.416,78.132,51.536z M15.427,50.269l8.343-17.258c0.009-0.02,0.026-0.032,0.038-0.05
	c0.02-0.029,0.039-0.058,0.064-0.084c0.023-0.022,0.049-0.039,0.075-0.057c0.02-0.013,0.034-0.031,0.056-0.042
	c0.01-0.005,0.021-0.004,0.03-0.008c0.031-0.013,0.062-0.018,0.095-0.023c0.031-0.006,0.062-0.014,0.093-0.014
	c0.031,0,0.061,0.008,0.092,0.013c0.033,0.007,0.066,0.012,0.097,0.024c0.009,0.004,0.02,0.003,0.029,0.008
	c0.021,0.01,0.034,0.027,0.053,0.04c0.028,0.019,0.055,0.036,0.079,0.06c0.025,0.025,0.043,0.053,0.062,0.082
	c0.012,0.018,0.029,0.03,0.039,0.051l8.343,17.258c0.12,0.249,0.016,0.548-0.232,0.668c-0.07,0.034-0.145,0.05-0.217,0.05
	c-0.186,0-0.364-0.104-0.451-0.282L24.22,34.377l-7.893,16.327c-0.086,0.179-0.265,0.282-0.451,0.282
	c-0.073,0-0.147-0.016-0.217-0.05C15.411,50.816,15.307,50.518,15.427,50.269z M24.276,58.856c-4.963,0-8.956-3.214-8.956-7.132
	h1.483H31.75h1.483C33.232,55.643,29.24,58.856,24.276,58.856z M60.743,81.314H33.458c-0.792,0-1.44-0.548-1.44-1.216
	s0.648-1.215,1.44-1.215h6.399v-1.186c0-0.792,0.648-1.44,1.44-1.44h2.952V31.617H24.854c-0.792,0-1.44-0.648-1.44-1.44v-1.979
	c0-0.792,0.648-1.44,1.44-1.44h19.395V15.411c0-0.792,0.648-1.439,1.44-1.439h2.824c0.793,0,1.439,0.647,1.439,1.439v11.347h19.396
	c0.791,0,1.439,0.648,1.439,1.44v1.979c0,0.792-0.648,1.44-1.439,1.44H49.952v44.641h2.953c0.791,0,1.439,0.648,1.439,1.44v1.186
	h6.398c0.793,0,1.441,0.547,1.441,1.215S61.536,81.314,60.743,81.314z M69.626,59.456c-4.963,0-8.955-3.213-8.955-7.131h1.482
	h14.945h1.484C78.583,56.243,74.589,59.456,69.626,59.456z"/>
</svg>
