<?xml version="1.0" encoding="utf-8"?>
<!-- Generator: Adobe Illustrator 18.1.0, SVG Export Plug-In . SVG Version: 6.00 Build 0)  -->
<svg version="1.1" id="Layer_26" xmlns="http://www.w3.org/2000/svg" xmlns:xlink="http://www.w3.org/1999/xlink" x="0px" y="0px"
	 viewBox="0 0 94.1 94.1" enable-background="new 0 0 94.1 94.1" xml:space="preserve">
<g>
	<g>
		<g>
			<path d="M47.1,75c-1.1,0-2.1-0.6-2.7-1.5L24.2,42.2c-2.8-4.4-4.3-9.5-4.3-14.7c0-15,12.2-27.1,27.1-27.1s27.1,12.2,27.1,27.1
				c0,5.2-1.5,10.3-4.3,14.7L49.8,73.5C49.2,74.4,48.2,75,47.1,75z M47.1,6.9c-11.4,0-20.6,9.2-20.6,20.6c0,4,1.1,7.8,3.3,11.1
				l17.3,27l17.3-27c2.1-3.3,3.3-7.2,3.3-11.1C67.7,16.2,58.4,6.9,47.1,6.9z"/>
		</g>
	</g>
	<g>
		<g>
			<path d="M47.1,35c-5.8,0-10.5-4.7-10.5-10.5S41.3,14,47.1,14c5.8,0,10.5,4.7,10.5,10.5S52.9,35,47.1,35z M47.1,18.3
				c-3.4,0-6.2,2.8-6.2,6.2s2.8,6.2,6.2,6.2s6.2-2.8,6.2-6.2S50.5,18.3,47.1,18.3z"/>
		</g>
	</g>
	<g>
		<g>
			<path d="M47.1,93.7c-19.9,0-35-7.5-35-17.5c0-4.7,3.4-9.1,9.6-12.2c1.6-0.8,3.6-0.2,4.4,1.4c0.8,1.6,0.2,3.6-1.4,4.4
				c-3.8,2-6.1,4.3-6.1,6.4c0,4.6,10.8,10.9,28.4,10.9c17.6,0,28.4-6.4,28.4-10.9c0-2.1-2.2-4.5-6.1-6.4C67.8,69,67.2,67,68,65.4
				c0.8-1.6,2.8-2.2,4.4-1.4c6.2,3.2,9.6,7.5,9.6,12.2C82,86.2,67,93.7,47.1,93.7z"/>
		</g>
	</g>
</g>
</svg>
