<?xml version="1.0" encoding="utf-8"?>
<!-- Generator: Adobe Illustrator 18.1.0, SVG Export Plug-In . SVG Version: 6.00 Build 0)  -->
<svg version="1.1" id="Layer_14" xmlns="http://www.w3.org/2000/svg" xmlns:xlink="http://www.w3.org/1999/xlink" x="0px" y="0px"
	 viewBox="0 0 94.1 94.1" enable-background="new 0 0 94.1 94.1" xml:space="preserve">
<path fill="#010202" d="M47.1,0.5C21.3,0.5,0.5,21.3,0.5,47.1c0,25.7,20.9,46.6,46.6,46.6c25.7,0,46.6-20.9,46.6-46.6
	C93.6,21.3,72.8,0.5,47.1,0.5z M53.1,73v0.7c-0.2,2.8-0.6,4.1-1.7,5.2c-1.2,1.1-2.7,1.7-4.3,1.7c-3.8,0-6-2.7-6-7.3v-0.2V73
	c-3.5-1.1-5.4-1.9-7.3-3.2c-3.9-2.5-5.9-5.5-5.9-8.8c0-3.5,2.4-6.1,5.6-6.1c1.9,0,3.6,0.8,5.8,2.5c4.8,4,5.8,4.6,8.7,4.6
	c3.6,0,6.2-2.5,6.2-5.8c0-3.3-2.4-5.3-8.4-6.7l-6.5-1.6c-6.4-1.6-10.4-6.5-10.4-12.8c0-4.7,2-9,5.4-11.6c1.7-1.3,3.4-2.2,6.4-3.4
	c0.1-1.7,0.3-2.5,0.7-3.5c1-1.9,3.2-3.2,5.4-3.2c3.4,0,5.7,2.4,6,6.2l1.3,0.5c3.6,1.1,5.1,2,6.9,3.5c2.1,1.9,3,3.7,3,5.8
	c0,3.2-2.5,5.8-5.3,5.8c-1.1,0-2.4-0.4-3.4-1.2c-0.3-0.2-1.3-0.9-2.7-2.1c-2.1-1.6-3.7-2.2-5.8-2.2c-3.3,0-5.8,2-5.8,4.8
	c0,1.7,0.9,2.9,2.9,3.8c0.8,0.4,1.8,0.6,5.4,1.5c12,2.7,17.1,7.7,17.1,16.7C66.3,64.4,60.9,71.3,53.1,73z"/>
</svg>
