<?xml version="1.0" encoding="utf-8"?>
<!-- Generator: Adobe Illustrator 16.0.0, SVG Export Plug-In . SVG Version: 6.00 Build 0)  -->
<!DOCTYPE svg PUBLIC "-//W3C//DTD SVG 1.1//EN" "http://www.w3.org/Graphics/SVG/1.1/DTD/svg11.dtd">
<svg version="1.1" id="Calque_3" xmlns="http://www.w3.org/2000/svg" xmlns:xlink="http://www.w3.org/1999/xlink" x="0px" y="0px"
	 width="94.114px" height="94.114px" viewBox="0 0 94.114 94.114" enable-background="new 0 0 94.114 94.114" xml:space="preserve">
<path d="M47.057,1.058c-25.404,0-46,20.595-46,45.999c0,25.405,20.596,46,46,46c25.405,0,46-20.595,46-46
	C93.058,21.652,72.462,1.058,47.057,1.058z M32.958,68.109l-1.352,1.12l-1.286-1.195c-1.686-1.567-16.509-15.483-17.955-21.549
	c-0.729-3.059-0.125-5.929,1.747-8.3c2.232-2.827,6.086-4.583,10.06-4.583c2.884,0,5.746,1.604,8.11,4.478
	c2.174-2.386,5.084-4.404,8.122-4.404c1.104,0,2,0.896,2,2s-0.896,2-2,2c-2.229,0-4.964,2.522-6.562,4.865l-1.754,2.571l-1.61-2.664
	c-1.833-3.034-4.19-4.846-6.305-4.846c-2.735,0-5.452,1.202-6.92,3.062c-1.102,1.396-1.437,3.042-0.996,4.894
	c0.819,3.436,9.454,12.574,15.501,18.336c6.893-5.864,15.852-14.57,16.446-17.699c0.239-1.257,0.077-2.514-0.481-3.737
	c-0.458-1.006-0.015-2.191,0.991-2.649c1.004-0.46,2.189-0.016,2.648,0.99c0.895,1.963,1.162,4.087,0.771,6.143
	C51.003,52.896,35.962,65.619,32.958,68.109z M62.927,64.94l-1.352,1.12l-1.287-1.195c-0.049-0.046-5.021-4.68-9.637-9.717
	c-0.746-0.814-0.689-2.079,0.125-2.825s2.078-0.689,2.824,0.124c3.105,3.39,6.381,6.595,8.131,8.273
	c6.893-5.865,15.85-14.567,16.443-17.696c0.354-1.869-0.199-3.804-1.559-5.445c-1.57-1.896-3.961-3.072-6.242-3.072
	c-2.229,0-4.965,2.521-6.562,4.864l-1.754,2.571l-1.609-2.664c-1.834-3.033-4.191-4.845-6.307-4.845
	c-2.734,0-5.451,1.202-6.919,3.062c-1.102,1.395-1.437,3.041-0.996,4.893c0.05,0.214,0.172,0.586,0.475,1.175
	c0.504,0.983,0.117,2.188-0.866,2.692c-0.984,0.504-2.189,0.116-2.692-0.866c-0.396-0.771-0.66-1.451-0.808-2.078
	c-0.728-3.054-0.124-5.924,1.748-8.295c2.232-2.826,6.086-4.582,10.059-4.582c2.885,0,5.746,1.603,8.111,4.477
	c2.174-2.386,5.084-4.403,8.121-4.403c3.494,0,6.979,1.69,9.322,4.521c2.133,2.577,2.988,5.682,2.408,8.743
	C80.974,49.727,65.931,62.45,62.927,64.94z"/>
</svg>
