<?xml version="1.0" encoding="utf-8"?>
<!-- Generator: Adobe Illustrator 16.0.0, SVG Export Plug-In . SVG Version: 6.00 Build 0)  -->
<!DOCTYPE svg PUBLIC "-//W3C//DTD SVG 1.1//EN" "http://www.w3.org/Graphics/SVG/1.1/DTD/svg11.dtd">
<svg version="1.1" id="Calque_10" xmlns="http://www.w3.org/2000/svg" xmlns:xlink="http://www.w3.org/1999/xlink" x="0px" y="0px"
	 width="94.114px" height="94.114px" viewBox="0 0 94.114 94.114" enable-background="new 0 0 94.114 94.114" xml:space="preserve">
<g>
	<path d="M88.052,76.283L72.398,60.627c4.251-6.127,6.753-13.564,6.753-21.572c0-20.921-17.025-37.941-37.948-37.941
		c-20.922,0-37.941,17.02-37.941,37.941C3.262,59.982,20.281,77,41.203,77c5.766,0,11.232-1.295,16.13-3.605L74.138,90.2
		c1.812,1.806,4.23,2.801,6.803,2.801c2.636,0,5.126-1.035,7.006-2.911C91.78,86.254,91.827,80.055,88.052,76.283 M18.438,39.055
		c0-12.552,10.215-22.768,22.766-22.768c12.555,0,22.769,10.216,22.769,22.768c0,12.556-10.214,22.77-22.769,22.77
		C28.653,61.825,18.438,51.611,18.438,39.055"/>
</g>
</svg>
