<?xml version="1.0" encoding="utf-8"?>
<!-- Generator: Adobe Illustrator 18.1.0, SVG Export Plug-In . SVG Version: 6.00 Build 0)  -->
<svg version="1.1" id="Layer_12" xmlns="http://www.w3.org/2000/svg" xmlns:xlink="http://www.w3.org/1999/xlink" x="0px" y="0px"
	 viewBox="0 0 94.1 94.1" enable-background="new 0 0 94.1 94.1" xml:space="preserve">
<g>
	<path fill="#010202" d="M52.4,63.5l22-22c3.9-3.9,5.4-9.4,4.1-14.6l1.3-1.3l0,0l0,0c3.1-3.1,3.1-8.1,0-11.2
		c-3.1-3.1-8.1-3.1-11.2,0l-1.1,1.1c-5.4-1.5-11.1-0.1-15.1,3.9L30,41.8c-4.4,0.5-8.7,2.4-12.1,5.8c-7.9,7.9-7.9,20.7,0,28.6
		c7.9,7.9,20.7,7.9,28.6,0C50.1,72.7,52,68.1,52.4,63.5z M35.1,41.8L55,22c3.7-3.7,9-4.4,13.5-2.3l2.8-2.8c1.7-1.7,4.4-1.7,6,0
		s1.7,4.4,0,6l-2.9,2.9c1.9,4.4,1.1,9.5-2.5,13.1L52.2,58.5l-3.3,3.3l-7.6,7.6c-4.7,4.7-12.2,4.7-16.9,0s-4.7-12.2,0-16.9l7.3-7.3
		L35.1,41.8z M20.5,73.6c-6.5-6.5-6.5-17,0-23.5c1.3-1.3,2.7-2.3,4.2-3.1L21.8,50c-6.1,6.1-6.1,16,0,22c6.1,6.1,16,6.1,22,0l3.7-3.7
		c-0.8,1.9-2,3.8-3.6,5.3C37.5,80.1,27,80.1,20.5,73.6z"/>
	<path fill="#010202" d="M38,48.6c-1.6-1.6-1.6-4.2,0-5.8L54.9,26c1.6-1.6,4.2-1.6,5.8,0c1.6,1.6,1.6,4.2,0,5.8L43.8,48.6
		C42.2,50.2,39.6,50.2,38,48.6z M58.1,28.6c-0.2-0.2-0.5-0.2-0.6,0L40.6,45.4c-0.2,0.2-0.2,0.5,0,0.6c0.2,0.2,0.5,0.2,0.6,0
		l16.8-16.8C58.2,29,58.2,28.8,58.1,28.6z"/>
</g>
</svg>
