<?xml version="1.0" encoding="utf-8"?>
<!-- Generator: Adobe Illustrator 16.0.0, SVG Export Plug-In . SVG Version: 6.00 Build 0)  -->
<!DOCTYPE svg PUBLIC "-//W3C//DTD SVG 1.1//EN" "http://www.w3.org/Graphics/SVG/1.1/DTD/svg11.dtd">
<svg version="1.1" id="Calque_6" xmlns="http://www.w3.org/2000/svg" xmlns:xlink="http://www.w3.org/1999/xlink" x="0px" y="0px"
	 width="94.114px" height="94.114px" viewBox="0 0 94.114 94.114" enable-background="new 0 0 94.114 94.114" xml:space="preserve">
<path d="M47.057,1.058c-25.405,0-46,20.595-46,45.999c0,25.405,20.595,46,46,46c25.405,0,46-20.595,46-46
	C93.058,21.652,72.462,1.058,47.057,1.058z M67.218,55.783c-8.102,9.722-16.562,4.23-19.262,1.98l-0.123-0.114
	c-5.999,6.205-4.9,18.227-3.795,20.065c-0.466,2.139-2.42,1.022-2.42,1.022c-0.372-2.977-0.744-4.837-0.744-8.372
	c-0.46-1.196-1.285-5.024-3.37-7.897c-2.62,6.444-9.983,1.86-11.782-3.534c-1.53-4.68-4.32-9.001-4.32-9.001
	s20.252-1.8,16.562,11.431c0,0.09-0.09,0.09-0.09,0.181c0.023-0.047,0.01-0.008-0.022,0.073c1.947,2.441,2.942,4.691,3.486,6.144
	c0.273-4.192,1.632-7.585,5.099-11.393c-8.634-6.687-1.048-18.515,5.567-21.287c6.842-2.88,9.723-2.25,16.021-12.602
	C74.958,32.65,73.788,47.862,67.218,55.783z"/>
</svg>
