<?xml version="1.0" encoding="utf-8"?>
<!-- Generator: Adobe Illustrator 16.0.0, SVG Export Plug-In . SVG Version: 6.00 Build 0)  -->
<!DOCTYPE svg PUBLIC "-//W3C//DTD SVG 1.1//EN" "http://www.w3.org/Graphics/SVG/1.1/DTD/svg11.dtd">
<svg version="1.1" id="Calque_9" xmlns="http://www.w3.org/2000/svg" xmlns:xlink="http://www.w3.org/1999/xlink" x="0px" y="0px"
	 width="94.114px" height="94.114px" viewBox="0 0 94.114 94.114" enable-background="new 0 0 94.114 94.114" xml:space="preserve">
<g>
	<path d="M47.058,0C21.067,0,0,21.067,0,47.064c0.001,25.98,21.067,47.05,47.058,47.05c25.988,0,47.056-21.069,47.056-47.052
		C94.114,21.067,73.046,0,47.058,0 M51.512,80.961V64.172h-8.553v16.843c-15.614-1.876-28.014-14.288-29.864-29.914h16.793V42.54
		H13.166c2.042-15.396,14.337-27.58,29.793-29.436V29.47h8.553V13.157c15.287,2.004,27.41,14.107,29.441,29.383H64.592v8.561H81.02
		C79.185,66.605,66.96,78.938,51.512,80.961"/>
	<path d="M53.844,47.057c0,3.746-3.038,6.785-6.786,6.785c-3.747,0-6.786-3.039-6.786-6.785c0-3.747,3.039-6.785,6.786-6.785
		C50.806,40.271,53.844,43.31,53.844,47.057"/>
</g>
</svg>
