<?xml version="1.0" encoding="utf-8"?>
<!-- Generator: Adobe Illustrator 18.1.0, SVG Export Plug-In . SVG Version: 6.00 Build 0)  -->
<svg version="1.1" id="Layer_21" xmlns="http://www.w3.org/2000/svg" xmlns:xlink="http://www.w3.org/1999/xlink" x="0px" y="0px"
	 viewBox="0 0 94.1 94.1" enable-background="new 0 0 94.1 94.1" xml:space="preserve">
<path d="M93.9,93.9H0V0h93.9V93.9z M78.2,27.5c-2.3,1-4.8,1.7-7.4,2c2.7-1.6,4.7-4.1,5.6-7.1c-2.5,1.5-5.2,2.5-8.2,3.1
	c-2.3-2.5-5.7-4.1-9.4-4.1c-7.1,0-12.8,5.8-12.8,12.8c0,1,0.1,2,0.3,2.9C35.8,36.7,26.3,31.6,20,23.9c-1.1,1.9-1.7,4.1-1.7,6.5
	c0,4.5,2.3,8.4,5.7,10.7c-2.1-0.1-4.1-0.6-5.8-1.6v0.2c0,6.2,4.4,11.4,10.3,12.6c-1.1,0.3-2.2,0.5-3.4,0.5c-0.8,0-1.6-0.1-2.4-0.2
	c1.6,5.1,6.4,8.8,12,8.9c-4.4,3.4-9.9,5.5-15.9,5.5c-1,0-2.1-0.1-3.1-0.2c5.7,3.6,12.4,5.8,19.7,5.8c23.6,0,36.5-19.6,36.5-36.5
	c0-0.6,0-1.1,0-1.7C74.3,32.4,76.5,30.1,78.2,27.5z"/>
</svg>
