<?xml version="1.0" encoding="utf-8"?>
<!-- Generator: Adobe Illustrator 16.0.0, SVG Export Plug-In . SVG Version: 6.00 Build 0)  -->
<!DOCTYPE svg PUBLIC "-//W3C//DTD SVG 1.1//EN" "http://www.w3.org/Graphics/SVG/1.1/DTD/svg11.dtd">
<svg version="1.1" id="Calque_4" xmlns="http://www.w3.org/2000/svg" xmlns:xlink="http://www.w3.org/1999/xlink" x="0px" y="0px"
	 width="94.114px" height="94.114px" viewBox="0 0 94.114 94.114" enable-background="new 0 0 94.114 94.114" xml:space="preserve">
<g>
	<polygon points="40.311,79.127 68.173,63.363 68.173,23.957 40.311,39.72 	"/>
	<polygon points="25.708,71.178 38.843,79.061 38.843,39.652 25.708,31.771 	"/>
	<polygon points="53.284,14.911 27.338,29.546 27.338,29.748 29.386,30.977 29.386,30.838 53.284,17.29 	"/>
	<path d="M47.057,1.058c-25.405,0-46,20.595-46,45.999c0,25.405,20.595,46,46,46s46-20.595,46-46
		C93.058,21.652,72.462,1.058,47.057,1.058z M69.173,63.946l-29.33,16.595v0.286l-0.246-0.147l-0.287,0.162v-0.334l-14.604-8.764
		v-0.206V30.005v-0.17l29.946-16.892v4.67l0.582-0.33v4.379l3.09-1.752v4.378l3.09-1.751v4.094l7.758-4.389V63.946z"/>
</g>
</svg>
